# xmcd
#
# Track frame offsets: 
#        182
#        12220
#        24377
#        56622
#        72312
#        85392
#        99385
#        122037
#        128722
#        140682
#        153747
#        168512
#        180857
#        207390
#        234380
#        245312
#
# Disc length: 3450 seconds
#
# Revision: 8
# Processed by: cddbd v1.5.2PL0 Copyright (c) Steve Scherf et al.
# Submitted via: ExactAudioCopyFreeDBPlugin 1.0
#
DISCID=d30d7610,d40d7810
DTITLE=Various Artist - Blues Collection Vol4
DYEAR=1991
DGENRE=Blues
TTITLE0=John Lee Hooker - Crawling King Snake
TTITLE1=Jimmy Reed - Honest I Do
TTITLE2=Canned Heat - Bullfrog Blues
TTITLE3=BB. King - The Letter
TTITLE4=Muddy Waters - Forty Days And Forty Nights
TTITLE5=Howlin Wolf - Highway
TTITLE6=Eric Clapton And The Yardbirds - Five Long Years
TTITLE7=Leadbelly - Noted Rider
TTITLE8=Canned Heat - Got My Mojo Working
TTITLE9=Luther Johnson - Chicken Shack
TTITLE10=Sonny Terry and Brownie McGhee - Gonna Lay My Body Down
TTITLE11=Elmore James - Mean Mistreatin' Mama
TTITLE12=BB. King - Guess Who
TTITLE13=Otis Rush And Little Walter - It's Hard For Me To Believe Bab
TTITLE13=y
TTITLE14=Muddy Waters - Goin' Home
TTITLE15=Memphis Slim - Everyday I Have The Blues
EXTD=YEAR: 1991
EXTT0=
EXTT1=
EXTT2=
EXTT3=
EXTT4=
EXTT5=
EXTT6=
EXTT7=
EXTT8=
EXTT9=
EXTT10=
EXTT11=
EXTT12=
EXTT13=
EXTT14=
EXTT15=
PLAYORDER=
